<svg viewBox="0 0 485 633.16" xmlns="http://www.w3.org/2000/svg">
        <path
            d="m313.89 45.85-61.69 146.63-82.12-63.6-83.41-47.05-86.67 50.02v284.68h21v21h-21v21h21v21h-21v21h21v22h-21v60.14l87.74 50.49 87.26-50.33s.2-225.3.6-225.3c.6 0 65.9 45.2 65.9 45.2l67.5-38.98v12.78s0 21 0 21v31.89s87.54 50.89 87.54 50.89l88.46-51.09v-166.69s-21 0-21 0v-21h21v-21s-21 0-21 0v-21h21v-21s-21 0-21 0v-21h21v-104.76s-91.41-52.77-91.41-52.77zm138.83 12.38-54.28 31.34-58.96-34.04 54.15-31.26 59.1 33.96zm-72.65 45.07-59.7 141.49-51.21-39.31 55.61-134.11zm83.93 54.23h-21v21h21v21h-21v21h21v21h-21v21h21v154.59l-57 32.9v-36.49h-21v-21h21v-21h-21v-21h21v-109l-30.18 58.94-124.82 71.86v-64.8l85.02-49.1 61.26-144.6 65.71-37.86v81.56zm-314.18-17.11-62.08 36.14-61.54-35.59 62.12-36.06zm152.04 114.09-60.36 34.82-87.5-65.57v346.97s-55.5 32-55.5 32l-.5-186.2h-21v-21h21v-21h-21v-21h21v-21h-21v-21h21v-116.59s71.89-41.69 71.89-41.69zm-224.86-59.95v116.98h-21v21h21v21h-21v21h21v21h-21v21h21s0 186.2 0 186.2l-56-32.18v-48.02h21v-22h-21v-21h21v-21h-21v-21h21v-21h-21v-254.31zm154 112.97v64.8s-56-39.3-56-39.3v-66.57m211 84.07h-21v21h21v21h-21v21h21v35.19l-56-31.7v-65.39s56-32.33 56-32.33v31.24z" />

</svg>
