<svg viewBox="0 0 700 700.53" xmlns="http://www.w3.org/2000/svg"><rect fill="#faf9f5" height="700.53" rx="120.01" width="700"/><g fill="#c88b45"><path d="m550.95 129.27-59.62 34.35-55.58 131.19-77.13 44.54v58.78l113.24-65.19 27.38-53.47v98.89h-19.05v19.05h19.05v19.05h-19.05v19.05h19.05v33.1l51.71-29.84v-140.25h-19.05v-19.05h19.05v-19.05h-19.05v-19.05h19.05v-19.05h-19.05v-19.06h19.05z" opacity=".1"/><path d="m403.86 291.24-119.73-91.86-65.22 37.82v105.78h-19.05v19.05h19.05v19.05h-19.05v19.05h19.05v19.05h-19.05v19.05h19.05l.45 168.93 50.35-29.03v-314.78l79.38 59.49z" opacity=".1"/><path d="m414.76 101.94-55.96 133.02-74.5-57.7-75.67-42.69-78.63 45.39v258.27h19.05v19.05h-19.05v19.05h19.05v19.05h-19.05v19.05h19.05v19.96h-19.05v54.56l79.6 45.8 79.16-45.66s.18-204.4.54-204.4c.54 0 59.79 41.01 59.79 41.01l61.24-35.36v11.59s0 19.05 0 19.05v28.93s79.42 46.16 79.42 46.16l80.25-46.35v-151.22s-19.05 0-19.05 0v-19.05h19.05v-19.05s-19.05 0-19.05 0v-19.05h19.05v-19.05s-19.05 0-19.05 0v-19.05h19.05v-95.04s-82.93-47.88-82.93-47.88l-72.31 41.59zm125.96 11.23-49.25 28.43-53.49-30.88 49.12-28.36zm-65.92 40.9-54.16 128.36-46.46-35.66 50.45-121.67zm76.15 49.19h-19.05v19.05h19.05v19.05h-19.05v19.05h19.05v19.05h-19.05v19.05h19.05v140.24l-51.71 29.85v-33.1h-19.05v-19.05h19.05v-19.05h-19.05v-19.05h19.05v-98.89l-27.38 53.47-113.24 65.2v-58.79l77.13-44.54 55.58-131.19 59.62-34.35zm-285.03-15.52-56.32 32.79-55.83-32.28 56.36-32.71 55.79 32.21zm137.94 103.5-54.76 31.59-79.38-59.49v314.78s-50.35 29.03-50.35 29.03l-.45-168.92h-19.05v-19.05h19.05v-19.05h-19.05v-19.05h19.05v-19.05h-19.05v-19.05h19.05v-105.77s65.22-37.82 65.22-37.82l119.73 91.86zm-204-54.39v106.12h-19.05v19.05h19.05v19.05h-19.05v19.05h19.05v19.05h-19.05v19.05h19.05s0 168.92 0 168.92l-50.8-29.2v-43.56h19.05v-19.96h-19.05v-19.05h19.05v-19.05h-19.05v-19.05h19.05v-19.05h-19.05v-230.71l50.8 29.33zm139.71 102.5v58.79s-50.8-35.65-50.8-35.65v-60.4m191.42 76.27h-19.05v19.05h19.05v19.05h-19.05v19.05h19.05v31.92l-50.8-28.76v-59.33s50.8-29.33 50.8-29.33v28.34z"/></g></svg>